<svg version="1.1" viewBox="0.0 0.0 960.0 720.0" fill="none" stroke="none" stroke-linecap="square" stroke-miterlimit="10" xmlns:xlink="http://www.w3.org/1999/xlink" xmlns="http://www.w3.org/2000/svg"><clipPath id="p.0"><path d="m0 0l960.0 0l0 720.0l-960.0 0l0 -720.0z" clip-rule="nonzero"/></clipPath><g clip-path="url(#p.0)"><path fill="#000000" fill-opacity="0.0" d="m0 0l960.0 0l0 720.0l-960.0 0z" fill-rule="evenodd"/><path fill="#000000" fill-opacity="0.0" d="m306.92914 332.87927l0 0c0 -86.19122 75.82956 -156.063 169.37009 -156.063l0 0c93.5405 0 169.37009 69.87178 169.37009 156.063l0 0c0 86.19119 -75.82959 156.06299 -169.37009 156.06299l0 0c-93.54053 0 -169.37009 -69.871796 -169.37009 -156.06299z" fill-rule="evenodd"/><path stroke="#000000" stroke-width="8.0" stroke-linejoin="round" stroke-linecap="butt" d="m306.92914 332.87927l0 0c0 -86.19122 75.82956 -156.063 169.37009 -156.063l0 0c93.5405 0 169.37009 69.87178 169.37009 156.063l0 0c0 86.19119 -75.82959 156.06299 -169.37009 156.06299l0 0c-93.54053 0 -169.37009 -69.871796 -169.37009 -156.06299z" fill-rule="evenodd"/><path fill="#000000" fill-opacity="0.0" d="m413.98425 219.98163l66.01575 0l66.01575 112.897644l-66.01575 112.897644l-66.01575 0l66.01575 -112.897644z" fill-rule="evenodd"/><path stroke="#000000" stroke-width="8.0" stroke-linejoin="round" stroke-linecap="butt" d="m413.98425 219.98163l66.01575 0l66.01575 112.897644l-66.01575 112.897644l-66.01575 0l66.01575 -112.897644z" fill-rule="evenodd"/></g></svg>